<svg width="265" height="137" viewBox="0 0 265 137" fill="none" xmlns="http://www.w3.org/2000/svg"><path d="M4.009 8.086a4 4 0 100-8 4 4 0 000 8zm32 0a4 4 0 100-8 4 4 0 000 8zm32 0a4 4 0 100-8 4 4 0 000 8zm32 0a4 4 0 100-8 4 4 0 000 8zm32 0a4 4 0 100-8 4 4 0 000 8zm32 0a4 4 0 100-8 4 4 0 000 8zm36-4c0 2.333-1.667 4-4 4-2.334 0-4-1.667-4-4s1.666-4 4-4c2.333 0 4 1.667 4 4zm28 4a4 4 0 100-8 4 4 0 000 8zm32 0a4 4 0 100-8 4 4 0 000 8zm-256 32a4 4 0 100-8 4 4 0 000 8zm32 0a4 4 0 100-8 4 4 0 000 8zm32 0a4 4 0 100-8 4 4 0 000 8zm32 0a4 4 0 100-8 4 4 0 000 8zm32 0a4 4 0 100-8 4 4 0 000 8zm32 0a4 4 0 100-8 4 4 0 000 8zm36-4c0 2.333-1.667 4-4 4-2.334 0-4-1.667-4-4s1.666-4 4-4c2.333 0 4 1.667 4 4zm28 4a4 4 0 100-8 4 4 0 000 8zm32 0a4 4 0 100-8 4 4 0 000 8zm-256 32a4 4 0 100-8 4 4 0 000 8zm32 0a4 4 0 100-8 4 4 0 000 8zm32 0a4 4 0 100-8 4 4 0 000 8zm32 0a4 4 0 100-8 4 4 0 000 8zm32 0a4 4 0 100-8 4 4 0 000 8zm32 0a4 4 0 100-8 4 4 0 000 8zm36-3.982c0 2.323-1.667 3.982-4 3.982-2.334 0-4-1.66-4-3.982 0-2.323 1.666-3.982 4-3.982 2.333-.332 4 1.66 4 3.982zm28 3.982a4 4 0 100-8 4 4 0 000 8zm32 0a4 4 0 100-8 4 4 0 000 8zm-256 32a4 4 0 100-8 4 4 0 000 8zm32 0a4 4 0 100-8 4 4 0 000 8zm32 0a4 4 0 100-8 4 4 0 000 8zm32 0a4 4 0 100-8 4 4 0 000 8zm32 0a4 4 0 100-8 4 4 0 000 8zm32 0a4 4 0 100-8 4 4 0 000 8zm36-4c0 2.333-1.667 4-4 4-2.334 0-4-1.667-4-4s1.666-4 4-4c2.333 0 4 2 4 4zm28 4a4 4 0 100-8 4 4 0 000 8zm32 0a4 4 0 100-8 4 4 0 000 8zm-256 32a4 4 0 100-8 4 4 0 000 8zm32 0a4 4 0 100-8 4 4 0 000 8zm32 0a4 4 0 100-8 4 4 0 000 8zm32 0a4 4 0 100-8 4 4 0 000 8zm32 0a4 4 0 100-8 4 4 0 000 8zm32 0a4 4 0 100-8 4 4 0 000 8zm36-4c0 2.333-1.667 4-4 4-2.334 0-4-1.667-4-4s1.666-4 4-4c2.333 0 4 1.667 4 4zm28 4a4 4 0 100-8 4 4 0 000 8zm32 0a4 4 0 100-8 4 4 0 000 8z" opacity=".2" fill="#546E7A"/></svg>